<svg width="148" height="142" viewBox="0 0 148 142" fill="none" xmlns="http://www.w3.org/2000/svg">
<path fill-rule="evenodd" clip-rule="evenodd" d="M73.372 32.487C50.4989 32.487 31.9727 50.1913 31.9727 72.0499C31.9727 89.5565 43.8233 104.343 60.2794 109.585C62.3493 109.931 63.1257 108.745 63.1257 107.706C63.1257 106.766 63.0739 103.651 63.0739 100.337C52.6724 102.167 49.9814 97.9141 49.1534 95.6887C48.6876 94.5513 46.6694 91.0401 44.9099 90.1005C43.461 89.3586 41.3909 87.5289 44.8581 87.4794C48.1183 87.43 50.4471 90.3478 51.2233 91.5346C54.9493 97.5185 60.9004 95.837 63.2809 94.7986C63.643 92.227 64.7299 90.4961 65.9202 89.5071C56.7088 88.518 47.0835 85.1057 47.0835 69.9728C47.0835 65.6704 48.6876 62.1097 51.3269 59.3403C50.9128 58.3512 49.4638 54.296 51.7408 48.856C51.7408 48.856 55.208 47.8176 63.1257 52.9114C66.4375 52.0211 69.9565 51.5761 73.4754 51.5761C76.9944 51.5761 80.5133 52.0211 83.8253 52.9114C91.7429 47.768 95.2102 48.856 95.2102 48.856C97.4871 54.296 96.038 58.3512 95.6241 59.3403C98.2633 62.1097 99.8675 65.6208 99.8675 69.9728C99.8675 85.1551 90.1904 88.518 80.9792 89.5071C82.4797 90.7434 83.7735 93.1171 83.7735 96.8262C83.7735 102.118 83.7218 106.371 83.7218 107.706C83.7218 108.745 84.498 109.981 86.5679 109.585C102.921 104.343 114.771 89.5071 114.771 72.0499C114.771 50.1913 96.245 32.487 73.372 32.487Z" fill="white"/>
</svg>
