<svg width="101" height="84" viewBox="0 0 101 84" fill="none" xmlns="http://www.w3.org/2000/svg">
<g clip-path="url(#clip0_14_33)">
<path d="M33.6707 42C33.6707 34.2683 41.2052 27.9989 50.502 27.9989C59.7988 27.9989 67.3374 34.2683 67.3374 42C67.3374 49.7317 59.7988 56.0011 50.502 56.0011C41.2052 56.0011 33.6707 49.7317 33.6707 42ZM24.5698 42C24.5698 53.9112 36.1796 63.5665 50.502 63.5665C64.8244 63.5665 76.4342 53.9112 76.4342 42C76.4342 30.0888 64.8244 20.4335 50.502 20.4335C36.1796 20.4335 24.5698 30.0888 24.5698 42ZM71.4006 19.5784C71.3992 22.3619 74.1114 24.6193 77.4584 24.6204C80.8054 24.6215 83.5197 22.3659 83.521 19.5824C83.5224 16.7989 80.8102 14.5415 77.4632 14.5404C74.1178 14.5417 71.4035 16.7962 71.4006 19.5784ZM30.0992 76.187C25.1755 76.0005 22.4993 75.3184 20.7208 74.7422C18.3629 73.9788 16.6806 73.0696 14.9118 71.6006C13.1431 70.1316 12.0482 68.7338 11.1343 66.7729C10.441 65.2945 9.62084 63.0682 9.39701 58.9734C9.15218 54.5462 9.10329 53.2164 9.10329 42.0003C9.10329 30.7843 9.15622 29.4581 9.39701 25.0273C9.62124 20.9325 10.4475 18.7105 11.1343 17.2277C12.0522 15.2668 13.1455 13.8677 14.9118 12.3967C16.6782 10.9257 18.3589 10.0152 20.7208 9.25512C22.4984 8.67854 25.1755 7.99646 30.0992 7.81032C35.4225 7.6067 37.0216 7.56605 50.502 7.56605C63.9824 7.56605 65.5831 7.61006 70.9109 7.81032C75.8346 7.9968 78.5064 8.68392 80.2893 9.25512C82.6472 10.0152 84.3295 10.9277 86.0983 12.3967C87.8671 13.8657 88.9579 15.2668 89.8758 17.2277C90.5691 18.7061 91.3893 20.9325 91.6131 25.0273C91.8579 29.4581 91.9068 30.7843 91.9068 42.0003C91.9068 53.2164 91.8579 54.5425 91.6131 58.9734C91.3889 63.0682 90.5647 65.2939 89.8758 66.7729C88.9579 68.7338 87.8646 70.1329 86.0983 71.6006C84.3319 73.0682 82.6472 73.9788 80.2893 74.7422C78.5117 75.3188 75.8346 76.0008 70.9109 76.187C65.5876 76.3906 63.9885 76.4313 50.502 76.4313C37.0156 76.4313 35.4209 76.3906 30.0992 76.187ZM29.681 0.254352C24.3048 0.457968 20.6311 1.16693 17.4228 2.20517C14.1002 3.27734 11.2874 4.71576 8.47666 7.04962C5.66592 9.38347 3.94077 11.7264 2.65156 14.4897C1.40315 17.1595 0.550674 20.2131 0.30584 24.6842C0.0569663 29.1624 0 30.5941 0 42C0 53.4059 0.0569663 54.8376 0.30584 59.3158C0.550674 63.7872 1.40315 66.8405 2.65156 69.5103C3.94077 72.2719 5.66633 74.6175 8.47666 76.9504C11.287 79.2832 14.1002 80.7196 17.4228 81.7948C20.6371 82.8331 24.3048 83.542 29.681 83.7457C35.0686 83.9493 36.7873 84 50.502 84C64.2168 84 65.9383 83.9526 71.323 83.7457C76.6996 83.542 80.3709 82.8331 83.5812 81.7948C86.9019 80.7196 89.7166 79.2842 92.5274 76.9504C95.3381 74.6165 97.0596 72.2719 98.3525 69.5103C99.6009 66.8405 100.457 63.7869 100.698 59.3158C100.943 54.8342 101 53.4059 101 42C101 30.5941 100.943 29.1624 100.698 24.6842C100.453 20.2128 99.6009 17.1578 98.3525 14.4897C97.0596 11.7281 95.3337 9.38717 92.5274 7.04962C89.7211 4.71206 86.9019 3.27734 83.5853 2.20517C80.3709 1.16693 76.6992 0.454608 71.327 0.254352C65.9423 0.050736 64.2208 0 50.5061 0C36.7913 0 35.0686 0.047376 29.681 0.254352Z" fill="white"/>
</g>
<defs>
<clipPath id="clip0_14_33">
<rect width="101" height="84" fill="white"/>
</clipPath>
</defs>
</svg>
