<svg width="365" height="221" viewBox="0 0 365 221" fill="none" xmlns="http://www.w3.org/2000/svg">
<path d="M364.5 36.5C364.5 38.838 363.318 41.1773 360.943 43.4984C358.567 45.8204 355.036 48.0841 350.445 50.2554C341.263 54.5969 327.946 58.5198 311.449 61.8191C278.464 68.4161 232.873 72.5 182.5 72.5C132.127 72.5 86.5361 68.4161 53.5511 61.8191C37.0545 58.5198 23.7369 54.5969 14.5555 50.2554C9.96353 48.0841 6.43293 45.8204 4.05724 43.4984C1.68237 41.1773 0.5 38.838 0.5 36.5C0.5 34.162 1.68237 31.8227 4.05724 29.5016C6.43293 27.1796 9.96353 24.9159 14.5555 22.7446C23.7369 18.4031 37.0545 14.4802 53.5511 11.1809C86.5361 4.58389 132.127 0.5 182.5 0.5C232.873 0.5 278.464 4.58389 311.449 11.1809C327.946 14.4802 341.263 18.4031 350.445 22.7446C355.036 24.9159 358.567 27.1796 360.943 29.5016C363.318 31.8227 364.5 34.162 364.5 36.5Z" stroke="#C9C7C7"/>
<path d="M364.5 184.5C364.5 186.838 363.318 189.177 360.943 191.498C358.567 193.82 355.036 196.084 350.445 198.255C341.263 202.597 327.946 206.52 311.449 209.819C278.464 216.416 232.873 220.5 182.5 220.5C132.127 220.5 86.5361 216.416 53.5511 209.819C37.0545 206.52 23.7369 202.597 14.5555 198.255C9.96353 196.084 6.43293 193.82 4.05724 191.498C1.68237 189.177 0.5 186.838 0.5 184.5C0.5 182.162 1.68237 179.823 4.05724 177.502C6.43293 175.18 9.96353 172.916 14.5555 170.745C23.7369 166.403 37.0545 162.48 53.5511 159.181C86.5361 152.584 132.127 148.5 182.5 148.5C232.873 148.5 278.464 152.584 311.449 159.181C327.946 162.48 341.263 166.403 350.445 170.745C355.036 172.916 358.567 175.18 360.943 177.502C363.318 179.823 364.5 182.162 364.5 184.5Z" stroke="#C9C7C7"/>
<path d="M364.5 165.5C364.5 167.838 363.318 170.177 360.943 172.498C358.567 174.82 355.036 177.084 350.445 179.255C341.263 183.597 327.946 187.52 311.449 190.819C278.464 197.416 232.873 201.5 182.5 201.5C132.127 201.5 86.5361 197.416 53.5511 190.819C37.0545 187.52 23.7369 183.597 14.5555 179.255C9.96353 177.084 6.43293 174.82 4.05724 172.498C1.68237 170.177 0.5 167.838 0.5 165.5C0.5 163.162 1.68237 160.823 4.05724 158.502C6.43293 156.18 9.96353 153.916 14.5555 151.745C23.7369 147.403 37.0545 143.48 53.5511 140.181C86.5361 133.584 132.127 129.5 182.5 129.5C232.873 129.5 278.464 133.584 311.449 140.181C327.946 143.48 341.263 147.403 350.445 151.745C355.036 153.916 358.567 156.18 360.943 158.502C363.318 160.823 364.5 163.162 364.5 165.5Z" stroke="#C9C7C7"/>
<path d="M364.5 150.5C364.5 152.838 363.318 155.177 360.943 157.498C358.567 159.82 355.036 162.084 350.445 164.255C341.263 168.597 327.946 172.52 311.449 175.819C278.464 182.416 232.873 186.5 182.5 186.5C132.127 186.5 86.5361 182.416 53.5511 175.819C37.0545 172.52 23.7369 168.597 14.5555 164.255C9.96353 162.084 6.43293 159.82 4.05724 157.498C1.68237 155.177 0.5 152.838 0.5 150.5C0.5 148.162 1.68237 145.823 4.05724 143.502C6.43293 141.18 9.96353 138.916 14.5555 136.745C23.7369 132.403 37.0545 128.48 53.5511 125.181C86.5361 118.584 132.127 114.5 182.5 114.5C232.873 114.5 278.464 118.584 311.449 125.181C327.946 128.48 341.263 132.403 350.445 136.745C355.036 138.916 358.567 141.18 360.943 143.502C363.318 145.823 364.5 148.162 364.5 150.5Z" stroke="#C9C7C7"/>
<path d="M364.5 129.5C364.5 131.838 363.318 134.177 360.943 136.498C358.567 138.82 355.036 141.084 350.445 143.255C341.263 147.597 327.946 151.52 311.449 154.819C278.464 161.416 232.873 165.5 182.5 165.5C132.127 165.5 86.5361 161.416 53.5511 154.819C37.0545 151.52 23.7369 147.597 14.5555 143.255C9.96353 141.084 6.43293 138.82 4.05724 136.498C1.68237 134.177 0.5 131.838 0.5 129.5C0.5 127.162 1.68237 124.823 4.05724 122.502C6.43293 120.18 9.96353 117.916 14.5555 115.745C23.7369 111.403 37.0545 107.48 53.5511 104.181C86.5361 97.5839 132.127 93.5 182.5 93.5C232.873 93.5 278.464 97.5839 311.449 104.181C327.946 107.48 341.263 111.403 350.445 115.745C355.036 117.916 358.567 120.18 360.943 122.502C363.318 124.823 364.5 127.162 364.5 129.5Z" stroke="#C9C7C7"/>
<path d="M364.5 114.5C364.5 116.838 363.318 119.177 360.943 121.498C358.567 123.82 355.036 126.084 350.445 128.255C341.263 132.597 327.946 136.52 311.449 139.819C278.464 146.416 232.873 150.5 182.5 150.5C132.127 150.5 86.5361 146.416 53.5511 139.819C37.0545 136.52 23.7369 132.597 14.5555 128.255C9.96353 126.084 6.43293 123.82 4.05724 121.498C1.68237 119.177 0.5 116.838 0.5 114.5C0.5 112.162 1.68237 109.823 4.05724 107.502C6.43293 105.18 9.96353 102.916 14.5555 100.745C23.7369 96.4031 37.0545 92.4802 53.5511 89.1809C86.5361 82.5839 132.127 78.5 182.5 78.5C232.873 78.5 278.464 82.5839 311.449 89.1809C327.946 92.4802 341.263 96.4031 350.445 100.745C355.036 102.916 358.567 105.18 360.943 107.502C363.318 109.823 364.5 112.162 364.5 114.5Z" stroke="#C9C7C7"/>
<path d="M364.5 93.5C364.5 95.838 363.318 98.1773 360.943 100.498C358.567 102.82 355.036 105.084 350.445 107.255C341.263 111.597 327.946 115.52 311.449 118.819C278.464 125.416 232.873 129.5 182.5 129.5C132.127 129.5 86.5361 125.416 53.5511 118.819C37.0545 115.52 23.7369 111.597 14.5555 107.255C9.96353 105.084 6.43293 102.82 4.05724 100.498C1.68237 98.1773 0.5 95.838 0.5 93.5C0.5 91.162 1.68237 88.8227 4.05724 86.5016C6.43293 84.1796 9.96353 81.9159 14.5555 79.7446C23.7369 75.4031 37.0545 71.4802 53.5511 68.1809C86.5361 61.5839 132.127 57.5 182.5 57.5C232.873 57.5 278.464 61.5839 311.449 68.1809C327.946 71.4802 341.263 75.4031 350.445 79.7446C355.036 81.9159 358.567 84.1796 360.943 86.5016C363.318 88.8227 364.5 91.162 364.5 93.5Z" stroke="#C9C7C7"/>
<path d="M364.5 78.5C364.5 80.838 363.318 83.1773 360.943 85.4984C358.567 87.8204 355.036 90.0841 350.445 92.2554C341.263 96.5969 327.946 100.52 311.449 103.819C278.464 110.416 232.873 114.5 182.5 114.5C132.127 114.5 86.5361 110.416 53.5511 103.819C37.0545 100.52 23.7369 96.5969 14.5555 92.2554C9.96353 90.0841 6.43293 87.8204 4.05724 85.4984C1.68237 83.1773 0.5 80.838 0.5 78.5C0.5 76.162 1.68237 73.8227 4.05724 71.5016C6.43293 69.1796 9.96353 66.9159 14.5555 64.7446C23.7369 60.4031 37.0545 56.4802 53.5511 53.1809C86.5361 46.5839 132.127 42.5 182.5 42.5C232.873 42.5 278.464 46.5839 311.449 53.1809C327.946 56.4802 341.263 60.4031 350.445 64.7446C355.036 66.9159 358.567 69.1796 360.943 71.5016C363.318 73.8227 364.5 76.162 364.5 78.5Z" stroke="#C9C7C7"/>
<path d="M364.5 57.5C364.5 59.838 363.318 62.1773 360.943 64.4984C358.567 66.8204 355.036 69.0841 350.445 71.2554C341.263 75.5969 327.946 79.5198 311.449 82.8191C278.464 89.4161 232.873 93.5 182.5 93.5C132.127 93.5 86.5361 89.4161 53.5511 82.8191C37.0545 79.5198 23.7369 75.5969 14.5555 71.2554C9.96353 69.0841 6.43293 66.8204 4.05724 64.4984C1.68237 62.1773 0.5 59.838 0.5 57.5C0.5 55.162 1.68237 52.8227 4.05724 50.5016C6.43293 48.1796 9.96353 45.9159 14.5555 43.7446C23.7369 39.4031 37.0545 35.4802 53.5511 32.1809C86.5361 25.5839 132.127 21.5 182.5 21.5C232.873 21.5 278.464 25.5839 311.449 32.1809C327.946 35.4802 341.263 39.4031 350.445 43.7446C355.036 45.9159 358.567 48.1796 360.943 50.5016C363.318 52.8227 364.5 55.162 364.5 57.5Z" stroke="#C9C7C7"/>
<line x1="0.5" y1="36" x2="0.5" y2="184" stroke="white"/>
<line y1="35.5" x2="365" y2="35.5" stroke="#C9C7C7"/>
<line y1="183.5" x2="365" y2="183.5" stroke="#C9C7C7"/>
<line x1="364.5" y1="184" x2="364.5" y2="36" stroke="#C9C7C7"/>
</svg>
